<svg xmlns="http://www.w3.org/2000/svg" width="1200" height="520" viewBox="0 0 1200 520" role="img" aria-labelledby="title desc">
  <title id="title">Zichen Wang project systems</title>
  <desc id="desc">A technical map connecting chemistry systems, coding-agent control, and research signals.</desc>
  <rect width="1200" height="520" fill="#0c1317"/>
  <g fill="none" stroke="#26363c" stroke-width="1"><path d="M48 78H1152M48 455H1152"/><path d="M478 48V455"/></g>
  <g font-family="Segoe UI, Arial, sans-serif" letter-spacing="0">
    <text x="48" y="58" fill="#93a4aa" font-family="Consolas, monospace" font-size="18">RESEARCH SOFTWARE / AGENT SYSTEMS</text>
    <text x="48" y="158" fill="#eef5f4" font-size="72" font-weight="700">ZICHEN</text>
    <text x="48" y="232" fill="#eef5f4" font-size="72" font-weight="700">WANG</text>
    <text x="48" y="286" fill="#b7c5c8" font-size="25">Chemistry-aware software.</text>
    <text x="48" y="322" fill="#b7c5c8" font-size="25">Controlled agent workflows.</text>
    <text x="48" y="358" fill="#b7c5c8" font-size="25">Source-aware research signals.</text>
    <text x="48" y="430" fill="#93a4aa" font-family="Consolas, monospace" font-size="18">PEKING UNIVERSITY · BEIJING</text>
    <g transform="translate(520 84)">
      <g stroke="#5eead4" stroke-width="3" fill="#0c1317"><path d="M12 26L38 10L64 26L64 56L38 72L12 56Z"/><circle cx="12" cy="26" r="5" fill="#5eead4"/><circle cx="64" cy="56" r="5" fill="#5eead4"/></g>
      <text x="94" y="18" fill="#5eead4" font-family="Consolas, monospace" font-size="18">01 / CHEMISTRY SYSTEMS</text>
      <text x="94" y="55" fill="#eef5f4" font-size="28" font-weight="600">cdxml-toolkit-community</text>
      <text x="94" y="89" fill="#b7c5c8" font-size="25">codex-chemdraw-skill</text>
      <path d="M94 108H620" stroke="#34464c" stroke-width="1"/>
    </g>
    <g transform="translate(520 222)">
      <rect x="8" y="5" width="62" height="62" rx="6" fill="none" stroke="#7dd3fc" stroke-width="3"/><path d="M22 24L34 35L22 46M42 48H58" fill="none" stroke="#7dd3fc" stroke-width="3"/>
      <text x="94" y="18" fill="#7dd3fc" font-family="Consolas, monospace" font-size="18">02 / CODING-AGENT CONTROL</text>
      <text x="94" y="55" fill="#eef5f4" font-size="27" font-weight="600">Grok Build · OpenCode · Kimi Code</text>
      <text x="94" y="88" fill="#b7c5c8" font-size="23">exact sessions / owned processes / real tests</text>
      <path d="M94 108H620" stroke="#34464c" stroke-width="1"/>
    </g>
    <g transform="translate(520 360)">
      <g fill="none" stroke="#ff7f96" stroke-width="3"><path d="M10 62H72M18 48L30 36L42 44L60 18"/><circle cx="18" cy="48" r="4" fill="#ff7f96"/><circle cx="30" cy="36" r="4" fill="#ff7f96"/><circle cx="42" cy="44" r="4" fill="#ff7f96"/><circle cx="60" cy="18" r="4" fill="#ff7f96"/></g>
      <text x="94" y="18" fill="#ff7f96" font-family="Consolas, monospace" font-size="18">03 / RESEARCH SIGNALS</text>
      <text x="94" y="55" fill="#eef5f4" font-size="28" font-weight="600">AIxDaily</text><text x="252" y="55" fill="#b7c5c8" font-size="23">five curated AI × science channels</text>
    </g>
  </g>
</svg>
